<?xml version="1.0" encoding="utf-8"?>
<svg width="24" height="24" viewBox="0 0 24 24" fill="none" xmlns="http://www.w3.org/2000/svg">
  <path fill-rule="evenodd" clip-rule="evenodd" d="M1 0C0.447715 0 0 0.447715 0 1C0 1.55228 0.447716 2 1 2H23C23.5523 2 24 1.55228 24 1C24 0.447715 23.5523 0 23 0H1ZM8.74047 17.501C8.04767 17.8337 7.27225 18 6.41419 18C5.73411 18 5.09534 17.8909 4.49788 17.6728C3.90042 17.4492 3.38242 17.1329 2.94386 16.7239C2.7845 16.5731 2.64112 16.4123 2.51373 16.2415C2.16322 15.7715 2.49753 15.1577 3.06795 15.0221C3.55648 14.9059 4.0339 15.2006 4.3717 15.5722C4.5185 15.7336 4.69085 15.8722 4.88877 15.9877C5.3464 16.2549 5.85487 16.3858 6.41419 16.3804C7.17055 16.3695 7.7839 16.1541 8.25424 15.7341C8.72458 15.3088 8.95975 14.7716 8.95975 14.1227C8.95975 13.4683 8.7214 12.9284 8.2447 12.5031C7.77436 12.0777 7.15784 11.865 6.39513 11.865C6.2041 11.865 6.01429 11.8837 5.82567 11.9209C5.39053 12.0068 4.91436 11.8935 4.6619 11.5288C4.3836 11.1268 4.47131 10.5769 4.86088 10.2814L8.35911 7.62781H3.35734C2.90783 7.62781 2.54343 7.26341 2.54343 6.81391C2.54343 6.3644 2.90783 6 3.35734 6H9.79979C10.3521 6 10.7998 6.44772 10.7998 7V7.15615C10.7998 7.45481 10.6663 7.73784 10.4358 7.92781L7.40572 10.4254C8.14936 10.5126 8.78814 10.728 9.32203 11.0716C9.86229 11.4097 10.2754 11.8432 10.5614 12.3722C10.8538 12.9012 11 13.4847 11 14.1227C11 14.8698 10.7966 15.5378 10.3898 16.1268C9.98305 16.7103 9.43326 17.1684 8.74047 17.501ZM13 18C12.4477 18 12 17.5523 12 17V7C12 6.44772 12.4477 6 13 6H15.9286C16.0447 6 16.2596 6.00278 16.5732 6.00833C16.8926 6.01389 17.1974 6.03611 17.4878 6.075C18.4692 6.19167 19.2938 6.52778 19.9617 7.08333C20.6353 7.63333 21.1434 8.33611 21.4861 9.19167C21.8287 10.0417 22 10.9778 22 12C22 13.0167 21.8287 13.9528 21.4861 14.8083C21.1434 15.6583 20.6353 16.3611 19.9617 16.9167C19.2938 17.4667 18.4692 17.8028 17.4878 17.925C17.1974 17.9639 16.8926 17.9861 16.5732 17.9917C16.2596 17.9972 16.0447 18 15.9286 18H13ZM13.8641 7.65833V16.3417H15.9286C16.1318 16.3417 16.367 16.3389 16.6341 16.3333C16.9071 16.3222 17.1481 16.2972 17.3571 16.2583C17.9959 16.1417 18.5128 15.8778 18.9077 15.4667C19.3084 15.05 19.6016 14.5389 19.7875 13.9333C19.9733 13.3278 20.0662 12.6833 20.0662 12C20.0662 11.2944 19.9704 10.6417 19.7787 10.0417C19.5871 9.43611 19.2909 8.93056 18.8902 8.525C18.4954 8.11389 17.9843 7.85278 17.3571 7.74167C17.1481 7.70278 16.9042 7.68056 16.6254 7.675C16.3525 7.66389 16.1202 7.65833 15.9286 7.65833H13.8641ZM0 23C0 22.4477 0.447715 22 1 22H23C23.5523 22 24 22.4477 24 23C24 23.5523 23.5523 24 23 24H1C0.447716 24 0 23.5523 0 23Z" style="fill: rgb(57, 54, 64);"/>
</svg>